# xmcd CD database file
#
# Track frame offsets:
#	150
#	4139
#	30951
#	53008
#	78234
#	101906
#	126469
#	142730
#	163333
#	170548
#	188357
#	209635
#	233142
#
# Disc length: 3358 seconds
#
# Revision: 0
# Processed by: cddbd v1.5.2PL0 Copyright (c) Steve Scherf et al.
# Submitted via: CDex 1.77
#
DISCID=a60d1c0d
DTITLE=Toufic Farroukh - Villes Invisibles
DYEAR=2017
DGENRE=Jazz
TTITLE0=Villes Invisibles (Intro)
TTITLE1=Villes Invisibles (dedicated to Gus Matar)
TTITLE2=Rio de Cairo
TTITLE3=V.S.A. (Villes sur Auzon)
TTITLE4=Serotina
TTITLE5=Mr. Tib
TTITLE6=Angela
TTITLE7=Miss Understood
TTITLE8=Le Cerisier d'Automne
TTITLE9=Lady Moon
TTITLE10=Yellow Bird
TTITLE11=Kantari Dreams
TTITLE12=Freeze Out
EXTD=YEAR: 2017
EXTT0=
EXTT1=
EXTT2=
EXTT3=
EXTT4=
EXTT5=
EXTT6=
EXTT7=
EXTT8=
EXTT9=
EXTT10=
EXTT11=
EXTT12=
PLAYORDER=
